<svg width="328" height="329" viewBox="0 0 328 329" fill="none" xmlns="http://www.w3.org/2000/svg">
<g clip-path="url(#clip0)">
<path d="M31.5424 277.154L28.6537 265.76C23.5318 263.589 18.2916 261.709 12.958 260.128L12.5934 265.424L11.1146 259.59C4.50002 257.699 0 256.867 0 256.867C0 256.867 6.07694 279.982 18.8271 297.654L33.6821 300.264L22.1417 301.928C23.7455 303.858 25.4691 305.685 27.3022 307.398C45.8479 324.614 66.5047 332.512 73.4399 325.04C80.3751 317.568 70.9629 297.555 52.4172 280.341C46.6679 275.004 39.4455 270.721 32.2157 267.35L31.5424 277.154Z" fill="#F2F2F2"/>
<path d="M59.0146 264.778L62.4309 253.532C59.1687 249.026 55.6549 244.707 51.9064 240.597L48.8573 244.941L50.6064 239.183C45.9206 234.147 42.4985 231.109 42.4985 231.109C42.4985 231.109 35.7545 254.038 37.5335 275.756L48.9014 285.669L38.1601 281.128C38.536 283.61 39.0675 286.065 39.7516 288.48C46.7295 312.804 60.33 330.244 70.1288 327.432C79.9277 324.621 82.2149 302.623 75.237 278.299C73.0739 270.758 69.1046 263.359 64.6583 256.736L59.0146 264.778Z" fill="#F2F2F2"/>
<path d="M228.877 77.9403H227.075V28.5734C227.075 24.8211 226.336 21.1055 224.9 17.6388C223.464 14.1721 221.359 11.0222 218.706 8.36896C216.053 5.71568 212.903 3.61098 209.437 2.17503C205.97 0.739085 202.255 1.52588e-05 198.503 1.52588e-05H93.9148C86.3371 1.52588e-05 79.0697 3.01042 73.7115 8.36896C68.3532 13.7275 65.343 20.9953 65.343 28.5734V299.409C65.343 303.161 66.082 306.877 67.5179 310.343C68.9538 313.81 71.0584 316.96 73.7115 319.613C76.3646 322.267 79.5144 324.371 82.9808 325.807C86.4473 327.243 90.1627 327.982 93.9148 327.982H198.503C206.081 327.982 213.348 324.972 218.706 319.613C224.064 314.255 227.074 306.987 227.074 299.409V113.081H228.876L228.877 77.9403Z" fill="#E6E6E6"/>
<path d="M199.656 7.43102H186.005C186.633 8.97041 186.872 10.6406 186.703 12.2945C186.533 13.9483 185.959 15.535 185.032 16.9148C184.104 18.2947 182.852 19.4252 181.385 20.2069C179.917 20.9886 178.281 21.3974 176.618 21.3973H116.701C115.038 21.3972 113.402 20.9883 111.934 20.2066C110.467 19.4248 109.215 18.2943 108.288 16.9145C107.36 15.5347 106.787 13.948 106.617 12.2942C106.447 10.6405 106.687 8.97035 107.315 7.43102H94.5639C88.905 7.43102 83.4778 9.67915 79.4763 13.6809C75.4748 17.6826 73.2268 23.1101 73.2268 28.7693V299.212C73.2268 304.871 75.4748 310.298 79.4763 314.3C83.4778 318.302 88.905 320.55 94.5639 320.55H199.656C205.315 320.55 210.742 318.302 214.744 314.3C218.745 310.298 220.993 304.871 220.993 299.212V28.7689C220.993 23.1097 218.745 17.6823 214.743 13.6807C210.742 9.67909 205.315 7.43102 199.656 7.43102Z" fill="white"/>
<path d="M133.718 115.161C133.718 113.271 134.216 111.414 135.161 109.777C136.106 108.14 137.466 106.781 139.104 105.837C137.467 104.891 135.61 104.394 133.72 104.393C131.83 104.393 129.973 104.891 128.336 105.836C126.7 106.781 125.34 108.14 124.395 109.777C123.45 111.414 122.952 113.271 122.952 115.161C122.952 117.051 123.45 118.908 124.395 120.545C125.34 122.182 126.7 123.541 128.336 124.486C129.973 125.431 131.83 125.928 133.72 125.928C135.61 125.928 137.467 125.43 139.104 124.485C137.466 123.541 136.107 122.182 135.161 120.545C134.216 118.909 133.718 117.052 133.718 115.161Z" fill="#CCCCCC"/>
<path d="M147.254 115.161C147.253 113.271 147.751 111.414 148.696 109.777C149.642 108.14 151.002 106.781 152.639 105.837C151.002 104.891 149.146 104.394 147.256 104.393C145.366 104.393 143.509 104.891 141.872 105.836C140.235 106.781 138.875 108.14 137.93 109.777C136.985 111.414 136.488 113.271 136.488 115.161C136.488 117.051 136.985 118.908 137.93 120.545C138.875 122.182 140.235 123.541 141.872 124.486C143.509 125.431 145.366 125.928 147.256 125.928C149.146 125.928 151.002 125.43 152.639 124.485C151.002 123.541 149.642 122.182 148.696 120.545C147.751 118.909 147.253 117.052 147.254 115.161Z" fill="#CCCCCC"/>
<path d="M160.482 125.928C166.428 125.928 171.248 121.108 171.248 115.161C171.248 109.214 166.428 104.394 160.482 104.394C154.535 104.394 149.715 109.214 149.715 115.161C149.715 121.108 154.535 125.928 160.482 125.928Z" fill="#C61FCF"/>
<path d="M178.476 148.792H115.725C115.127 148.791 114.554 148.553 114.132 148.131C113.71 147.709 113.472 147.136 113.471 146.538V83.7837C113.472 83.1863 113.71 82.6135 114.132 82.1911C114.554 81.7686 115.127 81.531 115.725 81.5303H178.476C179.073 81.531 179.646 81.7686 180.068 82.1911C180.491 82.6135 180.728 83.1863 180.729 83.7837V146.538C180.728 147.136 180.491 147.709 180.068 148.131C179.646 148.553 179.073 148.791 178.476 148.792ZM115.725 82.4322C115.366 82.4326 115.022 82.5751 114.769 82.8286C114.515 83.082 114.373 83.4257 114.373 83.7842V146.539C114.373 146.897 114.515 147.241 114.769 147.494C115.022 147.748 115.366 147.89 115.725 147.891H178.476C178.834 147.89 179.178 147.748 179.431 147.494C179.685 147.241 179.827 146.897 179.827 146.539V83.7842C179.827 83.4257 179.685 83.082 179.431 82.8286C179.178 82.5751 178.834 82.4326 178.476 82.4322H115.725Z" fill="#CCCCCC"/>
<path d="M192.487 196.896H96.2456V197.798H192.487V196.896Z" fill="#CCCCCC"/>
<path d="M99.285 191.268C100.964 191.268 102.324 189.907 102.324 188.228C102.324 186.55 100.964 185.189 99.285 185.189C97.6064 185.189 96.2456 186.55 96.2456 188.228C96.2456 189.907 97.6064 191.268 99.285 191.268Z" fill="#C61FCF"/>
<path d="M192.487 227.29H96.2456V228.191H192.487V227.29Z" fill="#CCCCCC"/>
<path d="M99.285 221.662C100.964 221.662 102.324 220.301 102.324 218.622C102.324 216.944 100.964 215.583 99.285 215.583C97.6064 215.583 96.2456 216.944 96.2456 218.622C96.2456 220.301 97.6064 221.662 99.285 221.662Z" fill="#C61FCF"/>
<path d="M190.726 261.9H160.311C159.785 261.9 159.282 261.691 158.91 261.319C158.539 260.948 158.33 260.444 158.329 259.919V249.258C158.33 248.732 158.539 248.229 158.91 247.857C159.282 247.486 159.785 247.277 160.311 247.276H190.726C191.251 247.277 191.755 247.486 192.126 247.857C192.498 248.229 192.707 248.732 192.707 249.258V259.919C192.707 260.444 192.498 260.948 192.126 261.319C191.755 261.691 191.251 261.9 190.726 261.9Z" fill="#C61FCF"/>
<path d="M109.199 191.268C110.878 191.268 112.239 189.907 112.239 188.228C112.239 186.55 110.878 185.189 109.199 185.189C107.521 185.189 106.16 186.55 106.16 188.228C106.16 189.907 107.521 191.268 109.199 191.268Z" fill="#C61FCF"/>
<path d="M119.113 191.268C120.792 191.268 122.153 189.907 122.153 188.228C122.153 186.55 120.792 185.189 119.113 185.189C117.435 185.189 116.074 186.55 116.074 188.228C116.074 189.907 117.435 191.268 119.113 191.268Z" fill="#C61FCF"/>
<path d="M109.199 221.662C110.878 221.662 112.239 220.301 112.239 218.622C112.239 216.944 110.878 215.583 109.199 215.583C107.521 215.583 106.16 216.944 106.16 218.622C106.16 220.301 107.521 221.662 109.199 221.662Z" fill="#C61FCF"/>
<path d="M119.113 221.662C120.792 221.662 122.153 220.301 122.153 218.622C122.153 216.944 120.792 215.583 119.113 215.583C117.435 215.583 116.074 216.944 116.074 218.622C116.074 220.301 117.435 221.662 119.113 221.662Z" fill="#C61FCF"/>
<path d="M326.775 329H10.6039C9.92704 329 9.37878 328.76 9.37878 328.464C9.37878 328.168 9.92704 327.927 10.6039 327.927H326.775C327.451 327.927 328 328.167 328 328.464C328 328.76 327.451 329 326.775 329Z" fill="#3F3D56"/>
<path d="M248.66 215.55C248.876 215.649 249.084 215.765 249.281 215.897L269.032 207.467L269.737 202.264L277.629 202.215L277.163 214.149L251.094 221.043C251.039 221.225 250.973 221.402 250.897 221.576C250.52 222.38 249.914 223.055 249.155 223.516C248.395 223.977 247.517 224.203 246.629 224.166C245.742 224.13 244.885 223.831 244.167 223.309C243.448 222.787 242.9 222.064 242.591 221.232C242.282 220.399 242.225 219.494 242.429 218.629C242.633 217.764 243.088 216.979 243.736 216.372C244.384 215.765 245.198 215.364 246.074 215.217C246.95 215.071 247.85 215.187 248.66 215.55Z" fill="#FFB8B8"/>
<path d="M280.499 323.691H275.101L272.532 302.866L280.5 302.866L280.499 323.691Z" fill="#FFB8B8"/>
<path d="M271.244 322.148H281.656V328.704H264.689C264.689 326.965 265.38 325.298 266.609 324.068C267.838 322.839 269.506 322.148 271.244 322.148Z" fill="#2F2E41"/>
<path d="M301.496 322.165L296.123 322.695L291.525 302.222L299.455 301.441L301.496 322.165Z" fill="#FFB8B8"/>
<path d="M292.134 321.537L302.496 320.517L303.138 327.041L286.253 328.704C286.168 327.848 286.254 326.983 286.504 326.159C286.753 325.335 287.163 324.568 287.709 323.903C288.255 323.237 288.927 322.686 289.687 322.28C290.446 321.874 291.277 321.622 292.134 321.537Z" fill="#2F2E41"/>
<path d="M282.002 180.176C287.976 180.176 292.818 175.333 292.818 169.36C292.818 163.386 287.976 158.543 282.002 158.543C276.029 158.543 271.187 163.386 271.187 169.36C271.187 175.333 276.029 180.176 282.002 180.176Z" fill="#FFB8B8"/>
<path d="M273.894 319.479C273.43 319.481 272.981 319.318 272.625 319.02C272.269 318.722 272.03 318.308 271.95 317.851C269.156 302.338 260.022 251.615 259.803 250.21C259.798 250.178 259.796 250.145 259.796 250.113V246.331C259.796 246.193 259.839 246.058 259.919 245.947L261.126 244.256C261.183 244.175 261.259 244.108 261.346 244.06C261.433 244.013 261.53 243.986 261.63 243.981C268.509 243.659 291.039 242.713 292.127 244.073C293.22 245.44 292.834 249.581 292.745 250.397L292.75 250.482L302.872 315.217C302.951 315.733 302.823 316.26 302.517 316.683C302.211 317.106 301.751 317.392 301.236 317.478L294.914 318.519C294.443 318.595 293.96 318.499 293.554 318.249C293.148 317.999 292.845 317.612 292.701 317.157C290.745 310.909 284.189 289.89 281.917 281.756C281.902 281.705 281.87 281.66 281.825 281.631C281.781 281.602 281.727 281.59 281.674 281.597C281.621 281.605 281.573 281.631 281.538 281.672C281.503 281.712 281.484 281.764 281.485 281.818C281.598 289.571 281.873 309.352 281.967 316.184L281.978 316.92C281.982 317.418 281.799 317.899 281.465 318.269C281.132 318.639 280.671 318.87 280.175 318.917L274.079 319.471C274.017 319.477 273.955 319.479 273.894 319.479Z" fill="#2F2E41"/>
<path d="M275.138 184.429C273.25 185.551 272.121 187.613 271.473 189.711C270.273 193.596 269.551 197.613 269.322 201.672L268.637 213.827L260.158 246.049C267.507 252.268 271.746 250.855 281.639 245.768C291.532 240.682 292.662 247.464 292.662 247.464L294.64 220.047L297.467 190.086C296.832 189.322 296.114 188.632 295.326 188.028C292.713 185.996 289.674 184.584 286.436 183.898C283.199 183.212 279.848 183.269 276.636 184.066L275.138 184.429Z" fill="#C61FCF"/>
<path d="M272.384 222.058C272.612 222.144 272.833 222.248 273.045 222.368L292.574 212.593L292.898 207.297L300.954 206.742L301.385 218.814L275.287 227.445C275.074 228.359 274.588 229.187 273.893 229.817C273.198 230.448 272.328 230.853 271.397 230.977C270.467 231.101 269.521 230.939 268.685 230.513C267.849 230.086 267.163 229.415 266.718 228.589C266.272 227.762 266.089 226.82 266.192 225.887C266.295 224.954 266.68 224.075 267.295 223.366C267.91 222.657 268.727 222.152 269.636 221.919C270.545 221.685 271.503 221.734 272.384 222.058Z" fill="#FFB8B8"/>
<path d="M297.325 190.223C302.13 191.919 302.977 210.293 302.977 210.293C297.324 207.184 290.54 212.272 290.54 212.272C290.54 212.272 289.127 207.467 287.431 201.248C286.919 199.499 286.858 197.649 287.253 195.87C287.649 194.091 288.488 192.44 289.692 191.073C289.692 191.073 292.52 188.526 297.325 190.223Z" fill="#C61FCF"/>
<path d="M291.7 172.22C290.353 171.142 288.514 173.102 288.514 173.102L287.436 163.398C287.436 163.398 280.698 164.206 276.386 163.129C272.073 162.053 271.4 167.038 271.4 167.038C271.177 165.024 271.132 162.995 271.265 160.973C271.534 158.547 275.038 156.122 281.237 154.504C287.436 152.887 290.67 159.895 290.67 159.895C294.983 162.051 293.048 173.298 291.7 172.22Z" fill="#2F2E41"/>
</g>
<defs>
<clipPath id="clip0">
<rect width="328" height="329" fill="white"/>
</clipPath>
</defs>
</svg>
