<svg width="379" height="264" viewBox="0 0 379 264" fill="none" xmlns="http://www.w3.org/2000/svg">
<g clip-path="url(#clip0)">
<path d="M75.5132 264C117.218 264 151.026 261.429 151.026 258.258C151.026 255.087 117.218 252.516 75.5132 252.516C33.8084 252.516 0 255.087 0 258.258C0 261.429 33.8084 264 75.5132 264Z" fill="#E6E6E6"/>
<path d="M57.7209 58.577C70.8625 52.9808 87.2306 56.5265 103.216 58.9873C103.364 56.0073 105.167 52.3804 103.279 50.3013C100.984 47.7754 101.195 45.1215 102.576 42.4522C106.107 35.6265 101.048 28.3636 95.9405 22.3245C94.7892 20.9664 93.3342 19.8993 91.6936 19.2099C90.0531 18.5206 88.2733 18.2283 86.4987 18.3569L77.0369 19.0336C74.7344 19.1982 72.5371 20.063 70.739 21.512C68.9408 22.9611 67.6276 24.9255 66.975 27.1422C64.7157 30.2185 63.5065 33.2863 64.2678 36.3382C60.8837 38.6535 60.3152 41.4484 61.8358 44.5991C63.1253 46.5829 63.1116 48.5139 61.7772 50.3915C60.0247 52.7853 58.6825 55.4545 57.8055 58.2896L57.7209 58.577Z" fill="#2F2E41"/>
<path d="M370.019 228.224H102.178C99.7957 228.224 97.5114 227.276 95.8272 225.59C94.1429 223.904 93.1967 221.617 93.1967 219.232C190.289 207.935 285.557 207.935 379 219.232C379 221.617 378.054 223.904 376.37 225.59C374.685 227.276 372.401 228.224 370.019 228.224Z" fill="#2F2E41"/>
<path d="M379 219.761L93.1967 219.232L126.32 163.433L126.479 163.168V40.1917C126.479 38.699 126.772 37.221 127.343 35.8419C127.913 34.4628 128.749 33.2098 129.804 32.1543C130.858 31.0988 132.11 30.2616 133.487 29.6904C134.864 29.1193 136.341 28.8254 137.832 28.8255H332.78C334.271 28.8254 335.747 29.1193 337.125 29.6904C338.502 30.2616 339.754 31.0988 340.808 32.1543C341.862 33.2098 342.699 34.4628 343.269 35.8419C343.84 37.221 344.133 38.699 344.133 40.1917V164.014L379 219.761Z" fill="#3F3D56"/>
<path d="M137.573 36.7591C136.592 36.7602 135.652 37.1506 134.959 37.8447C134.266 38.5388 133.876 39.4799 133.875 40.4614V152.59C133.876 153.572 134.266 154.513 134.959 155.207C135.652 155.901 136.592 156.291 137.573 156.292H334.624C335.604 156.291 336.544 155.901 337.237 155.207C337.931 154.513 338.321 153.572 338.322 152.59V40.4614C338.321 39.4799 337.931 38.5388 337.238 37.8448C336.544 37.1507 335.604 36.7602 334.624 36.7591H137.573Z" fill="white"/>
<path d="M138.399 171.102C138.096 171.102 137.799 171.189 137.544 171.353C137.289 171.517 137.086 171.75 136.959 172.025L126.752 194.239C126.641 194.481 126.593 194.747 126.611 195.012C126.629 195.278 126.714 195.534 126.857 195.759C127.001 195.983 127.198 196.167 127.431 196.295C127.665 196.422 127.926 196.489 128.192 196.489H342.827C343.097 196.489 343.363 196.42 343.599 196.288C343.835 196.157 344.033 195.967 344.175 195.737C344.317 195.507 344.398 195.244 344.41 194.974C344.422 194.704 344.365 194.435 344.244 194.193L333.15 171.979C333.02 171.715 332.817 171.493 332.567 171.338C332.317 171.183 332.028 171.101 331.733 171.102H138.399Z" fill="#2F2E41"/>
<path d="M235.306 34.9079C236.619 34.9079 237.683 33.8423 237.683 32.5278C237.683 31.2133 236.619 30.1478 235.306 30.1478C233.993 30.1478 232.929 31.2133 232.929 32.5278C232.929 33.8423 233.993 34.9079 235.306 34.9079Z" fill="white"/>
<path d="M214.209 200.721C213.861 200.721 213.522 200.836 213.246 201.048C212.969 201.261 212.77 201.558 212.679 201.895L210.119 211.415C210.055 211.65 210.047 211.897 210.094 212.136C210.141 212.375 210.243 212.599 210.391 212.793C210.539 212.986 210.729 213.143 210.947 213.25C211.166 213.358 211.406 213.414 211.649 213.414H260.338C260.59 213.414 260.839 213.354 261.064 213.238C261.288 213.122 261.482 212.954 261.629 212.748C261.775 212.542 261.87 212.304 261.906 212.053C261.942 211.803 261.918 211.548 261.835 211.309L258.543 201.788C258.435 201.476 258.233 201.206 257.965 201.015C257.696 200.824 257.375 200.721 257.046 200.721H214.209Z" fill="#2F2E41"/>
<path d="M344.133 161.317V163.432H126.32L126.484 163.168V161.317H344.133Z" fill="#2F2E41"/>
<path d="M338.058 74.0471C358.481 74.0471 375.038 57.4711 375.038 37.0236C375.038 16.576 358.481 0 338.058 0C317.634 0 301.078 16.576 301.078 37.0236C301.078 57.4711 317.634 74.0471 338.058 74.0471Z" fill="#C61FCF"/>
<path d="M353.378 53.1553H322.737C322.177 53.1547 321.64 52.9316 321.244 52.535C320.848 52.1384 320.625 51.6006 320.624 51.0396V32.5278C320.625 31.9669 320.848 31.4292 321.244 31.0325C321.64 30.6359 322.177 30.4128 322.737 30.4122H353.378C353.938 30.4128 354.475 30.6359 354.872 31.0325C355.268 31.4292 355.491 31.9669 355.491 32.5278V51.0396C355.491 51.6005 355.268 52.1384 354.872 52.535C354.475 52.9316 353.938 53.1547 353.378 53.1553ZM322.737 32.5279V51.0396H353.38L353.378 32.5278L322.737 32.5279Z" fill="white"/>
<path d="M347.567 32.5278H328.549V24.0653C328.549 17.9359 332.548 13.4872 338.058 13.4872C343.568 13.4872 347.567 17.9359 347.567 24.0653L347.567 32.5278ZM330.662 30.4122H345.454V24.0653C345.454 19.0828 342.413 15.6028 338.058 15.6028C333.703 15.6028 330.662 19.0828 330.662 24.0653L330.662 30.4122Z" fill="white"/>
<path d="M338.058 43.3705C339.225 43.3705 340.171 42.4233 340.171 41.2548C340.171 40.0864 339.225 39.1392 338.058 39.1392C336.891 39.1392 335.945 40.0864 335.945 41.2548C335.945 42.4233 336.891 43.3705 338.058 43.3705Z" fill="white"/>
<path d="M312.242 118.259H159.954C159.207 118.259 158.49 117.961 157.961 117.432C157.432 116.902 157.135 116.185 157.134 115.436V77.6154C157.135 76.8668 157.432 76.1492 157.961 75.6199C158.49 75.0906 159.207 74.7928 159.954 74.7919H312.242C312.99 74.7928 313.707 75.0906 314.236 75.6199C314.764 76.1492 315.062 76.8668 315.063 77.6154V115.436C315.062 116.185 314.764 116.902 314.236 117.432C313.707 117.961 312.99 118.259 312.242 118.259ZM159.954 75.9213C159.506 75.9218 159.076 76.1005 158.758 76.418C158.441 76.7356 158.263 77.1662 158.262 77.6154V115.436C158.263 115.885 158.441 116.316 158.758 116.633C159.076 116.951 159.506 117.13 159.954 117.13H312.242C312.691 117.13 313.121 116.951 313.438 116.633C313.756 116.316 313.934 115.885 313.935 115.436V77.6154C313.934 77.1662 313.756 76.7356 313.438 76.418C313.121 76.1004 312.691 75.9218 312.242 75.9213L159.954 75.9213Z" fill="#E6E6E6"/>
<path d="M183.617 106.576C189.961 106.576 195.105 101.426 195.105 95.0745C195.105 88.7225 189.961 83.5732 183.617 83.5732C177.272 83.5732 172.129 88.7225 172.129 95.0745C172.129 101.426 177.272 106.576 183.617 106.576Z" fill="#E6E6E6"/>
<path d="M210.148 87.407C209.896 87.4066 209.647 87.4559 209.414 87.552C209.182 87.6482 208.97 87.7893 208.792 87.9674C208.614 88.1454 208.473 88.3568 208.376 88.5896C208.28 88.8224 208.23 89.0719 208.23 89.3239C208.23 89.5758 208.28 89.8254 208.376 90.0581C208.473 90.2909 208.614 90.5023 208.792 90.6804C208.97 90.8584 209.182 90.9995 209.414 91.0957C209.647 91.1918 209.896 91.2411 210.148 91.2407H300.409C300.917 91.2407 301.404 91.0388 301.763 90.6793C302.122 90.3198 302.324 89.8322 302.324 89.3239C302.324 88.8155 302.122 88.3279 301.763 87.9684C301.404 87.6089 300.917 87.407 300.409 87.407H210.148Z" fill="#E6E6E6"/>
<path d="M210.148 98.9083C209.64 98.9083 209.153 99.1102 208.794 99.4697C208.435 99.8292 208.233 100.317 208.233 100.825C208.233 101.334 208.435 101.821 208.794 102.181C209.153 102.54 209.64 102.742 210.148 102.742H248.988C249.495 102.742 249.982 102.54 250.342 102.181C250.701 101.821 250.902 101.334 250.902 100.825C250.902 100.317 250.701 99.8292 250.342 99.4697C249.982 99.1102 249.495 98.9083 248.988 98.9083H210.148Z" fill="#E6E6E6"/>
<path d="M125.946 99.6837L97.7939 114.668L97.4376 102.181C106.626 100.645 115.368 97.9716 123.451 93.6186L126.395 86.3359C126.716 85.5424 127.238 84.846 127.909 84.3151C128.579 83.7842 129.377 83.4372 130.222 83.3079C131.067 83.1787 131.932 83.2717 132.73 83.578C133.529 83.8842 134.234 84.3931 134.777 85.0546C135.571 86.0225 135.968 87.2564 135.887 88.5063C135.806 89.7563 135.254 90.9288 134.342 91.7864L125.946 99.6837Z" fill="#FFB8B8"/>
<path d="M57.1598 186.198C56.9544 185.443 56.9108 184.654 57.0318 183.882C57.1529 183.11 57.4358 182.372 57.862 181.717L64.0461 172.216C65.5088 169.968 67.7532 168.345 70.3438 167.661C72.9344 166.976 75.6866 167.28 78.0662 168.512C75.4672 172.942 75.8296 176.827 78.9638 180.204C74.0982 182.582 69.6013 185.651 65.6123 189.317C64.8841 189.814 64.0478 190.129 63.173 190.237C62.2983 190.345 61.4105 190.242 60.5835 189.937C59.7565 189.632 59.0144 189.133 58.4188 188.483C57.8233 187.832 57.3916 187.049 57.1598 186.198Z" fill="#2F2E41"/>
<path d="M127.228 173.774C126.292 175.335 124.971 176.63 123.392 177.533C121.812 178.436 120.028 178.918 118.209 178.932L77.1256 179.243L75.3439 168.897L93.5177 163.545L78.1947 151.772L94.9431 132.15L125.363 160.536C127.141 162.195 128.297 164.415 128.636 166.825C128.975 169.234 128.478 171.687 127.228 173.774Z" fill="#2F2E41"/>
<path d="M70.7113 244.532H61.0898C52.4512 185.248 43.6579 125.798 69.6423 103.608L100.288 108.603L96.3685 134.647L79.2637 154.269L70.7113 244.532Z" fill="#2F2E41"/>
<path d="M79.169 257.962C78.4158 258.167 77.6277 258.211 76.8564 258.09C76.0851 257.969 75.3482 257.685 74.6941 257.259L64.2472 255.853C62.0023 254.389 60.3808 252.142 59.6972 249.548C59.0135 246.954 59.3166 244.199 60.5475 241.816C64.9716 244.418 68.8526 244.055 72.2251 240.917C74.608 245.734 78.5342 245.44 82.2839 249.499C82.7804 250.228 83.0957 251.065 83.2035 251.941C83.3114 252.817 83.2086 253.706 82.9039 254.534C82.5991 255.361 82.1012 256.105 81.4515 256.701C80.8019 257.297 80.0193 257.729 79.169 257.962Z" fill="#2F2E41"/>
<path d="M93.5177 64.0068L75.7002 59.7256C78.6594 53.6612 78.9031 46.9134 77.4819 39.7465L89.5978 39.3898C89.9775 48.3019 91.126 56.6281 93.5177 64.0068Z" fill="#FFB8B8"/>
<path d="M98.4146 119.345C85.4441 128.194 76.2795 119.648 69.2859 106.462C70.2577 98.394 68.6842 88.7386 65.7699 78.2473C64.4738 73.6199 64.9577 68.6741 67.126 64.3865C69.2943 60.0988 72.9895 56.7808 77.4819 55.0876L92.805 61.5095C105.816 72.1274 108.377 83.6288 103.495 95.7593L98.4146 119.345Z" fill="#C61FCF"/>
<path d="M61.0898 72.926L46.8358 80.4182L72.1367 95.4025L75.6571 104.096C75.8921 104.677 76.0066 105.299 75.9936 105.925C75.9805 106.551 75.8403 107.168 75.5814 107.738C75.3225 108.308 74.9504 108.819 74.4877 109.24C74.0251 109.661 73.4815 109.984 72.8903 110.188C72.2182 110.42 71.5016 110.493 70.7965 110.402C70.0915 110.31 69.4172 110.056 68.8265 109.66C68.2357 109.264 67.7446 108.737 67.3914 108.119C67.0383 107.501 66.8329 106.81 66.7911 106.1L66.4351 100.04L34.278 89.4162C33.1946 89.0582 32.2067 88.4581 31.3892 87.6613C30.5717 86.8645 29.946 85.8919 29.5596 84.8171C28.9962 83.2505 28.9676 81.5412 29.478 79.9565C29.9885 78.3719 31.0092 77.0014 32.3806 76.0595L58.2391 58.2985L61.0898 72.926Z" fill="#FFB8B8"/>
<path d="M75.3438 74.3531C69.399 71.7448 63.9933 74.5782 57.17 76.8505L56.101 57.9418C62.8762 54.3264 69.3359 53.3517 75.3439 56.1579L75.3438 74.3531Z" fill="#C61FCF"/>
<path d="M82.4552 48.7559C88.7379 48.7559 93.831 43.6568 93.831 37.3668C93.831 31.0767 88.7379 25.9776 82.4552 25.9776C76.1725 25.9776 71.0794 31.0767 71.0794 37.3668C71.0794 43.6568 76.1725 48.7559 82.4552 48.7559Z" fill="#FFB8B8"/>
<path d="M96.0643 35.9297C84.8013 37.0342 76.219 35.19 70.7339 29.939V25.7102H95.1084L96.0643 35.9297Z" fill="#2F2E41"/>
</g>
<defs>
<clipPath id="clip0">
<rect width="379" height="264" fill="white"/>
</clipPath>
</defs>
</svg>
